<?xml version="1.0" encoding="UTF-8" standalone="no"?>
<!DOCTYPE svg PUBLIC "-//W3C//DTD SVG 1.1//EN"
 "http://www.w3.org/Graphics/SVG/1.1/DTD/svg11.dtd">
<!-- Generated by graphviz version 2.43.0 (0)
 -->
<!-- Title: ComblexNetwork Pages: 1 -->
<svg width="486pt" height="417pt"
 viewBox="0.00 0.00 486.29 416.67" xmlns="http://www.w3.org/2000/svg" xmlns:xlink="http://www.w3.org/1999/xlink">
<g id="graph0" class="graph" transform="scale(1 1) rotate(0) translate(4 412.67)">
<title>ComblexNetwork</title>
<polygon fill="white" stroke="transparent" points="-4,4 -4,-412.67 482.29,-412.67 482.29,4 -4,4"/>
<!-- Victoria -->
<g id="node1" class="node">
<title>Victoria</title>
<ellipse fill="lightgrey" stroke="black" cx="234.7" cy="-361.87" rx="46.59" ry="46.59"/>
<text text-anchor="middle" x="234.7" y="-358.17" font-family="Times,serif" font-size="14.00">Victoria</text>
</g>
<!-- Interchange -->
<g id="node2" class="node">
<title>Interchange</title>
<ellipse fill="lightgrey" stroke="black" cx="234.7" cy="-212.13" rx="66.89" ry="66.89"/>
<text text-anchor="middle" x="234.7" y="-208.43" font-family="Times,serif" font-size="14.00">Interchange</text>
</g>
<!-- Victoria&#45;&#45;Interchange -->
<g id="edge1" class="edge">
<title>Victoria&#45;&#45;Interchange</title>
<path fill="none" stroke="red" stroke-width="3" d="M234.7,-314.94C234.7,-303.59 234.7,-291.21 234.7,-279.11"/>
</g>
<!-- Drytown -->
<g id="node3" class="node">
<title>Drytown</title>
<ellipse fill="lightgrey" stroke="black" cx="50.7" cy="-54.6" rx="50.89" ry="50.89"/>
<text text-anchor="middle" x="50.7" y="-50.9" font-family="Times,serif" font-size="14.00">Drytown</text>
</g>
<!-- Interchange&#45;&#45;Drytown -->
<g id="edge2" class="edge">
<title>Interchange&#45;&#45;Drytown</title>
<path fill="none" stroke="orange" stroke-width="3" d="M183.02,-169.44C160.62,-151.16 134.18,-129.32 110.7,-109.19 103.27,-102.83 95.42,-95.94 87.93,-89.28"/>
</g>
<!-- Nearville -->
<g id="node4" class="node">
<title>Nearville</title>
<ellipse fill="lightgrey" stroke="black" cx="172.7" cy="-54.6" rx="53.09" ry="53.09"/>
<text text-anchor="middle" x="172.7" y="-50.9" font-family="Times,serif" font-size="14.00">Nearville</text>
</g>
<!-- Interchange&#45;&#45;Nearville -->
<g id="edge3" class="edge">
<title>Interchange&#45;&#45;Nearville</title>
<path fill="none" stroke="orange" stroke-width="3" d="M210.19,-149.66C204.23,-134.72 197.94,-118.93 192.25,-104.65"/>
</g>
<!-- NURLink -->
<g id="node5" class="node">
<title>NURLink</title>
<ellipse fill="lightgrey" stroke="black" cx="297.7" cy="-54.6" rx="53.09" ry="53.09"/>
<text text-anchor="middle" x="297.7" y="-50.9" font-family="Times,serif" font-size="14.00">NURLink</text>
</g>
<!-- Interchange&#45;&#45;NURLink -->
<g id="edge4" class="edge">
<title>Interchange&#45;&#45;NURLink</title>
<path fill="none" stroke="green" stroke-width="3" d="M259.59,-149.66C265.72,-134.55 272.19,-118.57 278.02,-104.16"/>
</g>
<!-- Riverside -->
<g id="node6" class="node">
<title>Riverside</title>
<ellipse fill="lightgrey" stroke="black" cx="423.7" cy="-54.6" rx="54.69" ry="54.69"/>
<text text-anchor="middle" x="423.7" y="-50.9" font-family="Times,serif" font-size="14.00">Riverside</text>
</g>
<!-- Interchange&#45;&#45;Riverside -->
<g id="edge5" class="edge">
<title>Interchange&#45;&#45;Riverside</title>
<path fill="none" stroke="purple" stroke-width="3" d="M286.21,-169.37C308.81,-150.98 335.63,-129.08 359.7,-109.19 366.96,-103.19 374.66,-96.78 382.1,-90.56"/>
</g>
</g>
</svg>
